<svg width="48" height="48" viewBox="0 0 48 48" fill="none" xmlns="http://www.w3.org/2000/svg">
  <circle cx="24" cy="24" r="24" fill="white"/>
  <path fill-rule="evenodd" clip-rule="evenodd" d="M29.7952 24.7648C29.7952 27.5918 27.477 29.8833 24.6172 29.8833C21.7576 29.8833 19.4392 27.5918 19.4392 24.7648C19.4392 21.9378 21.7576 19.6463 24.6172 19.6463C27.477 19.6463 29.7952 21.9378 29.7952 24.7648Z" fill="#0f8d9b"/>
  <mask id="mask0" style="mask-type:luminance" maskUnits="userSpaceOnUse" x="12" y="12" width="26" height="26">
    <path fill-rule="evenodd" clip-rule="evenodd" d="M12 12.2932H37.2337V37.2369H12V12.2932Z" fill="white"/>
  </mask>
  <g mask="url(#mask0)">
    <path fill-rule="evenodd" clip-rule="evenodd" d="M32.8323 18.4698C31.8126 18.4698 30.9853 17.6523 30.9853 16.644C30.9853 15.6361 31.8126 14.8183 32.8323 14.8183C33.852 14.8183 34.6793 15.6361 34.6793 16.644C34.679 17.6523 33.852 18.4698 32.8323 18.4698ZM24.6172 32.5766C20.2522 32.5766 16.7142 29.0795 16.7142 24.7648C16.7142 20.4503 20.2522 16.953 24.6172 16.953C28.9815 16.953 32.5198 20.4503 32.5198 24.7648C32.5198 29.0795 28.9815 32.5766 24.6172 32.5766ZM36.6143 15.7929C36.3679 15.1322 35.9744 14.5343 35.463 14.0433C34.9666 13.5383 34.362 13.1494 33.6934 12.9055C33.1514 12.6974 32.3365 12.4494 30.8362 12.382C29.2131 12.3087 28.7262 12.2932 24.6172 12.2932C20.5078 12.2932 20.0209 12.3085 18.3981 12.3817C16.8978 12.4494 16.0827 12.6974 15.5409 12.9055C14.8723 13.1494 14.2674 13.5383 13.7714 14.0433C13.2599 14.5343 12.8667 15.1316 12.6197 15.7929C12.4089 16.3287 12.158 17.1344 12.0901 18.6175C12.016 20.222 12 20.7029 12 24.7654C12 28.8272 12.016 29.3082 12.0901 30.9129C12.158 32.396 12.4089 33.2012 12.6197 33.7372C12.8667 34.3982 13.2596 34.9958 13.7708 35.4865C14.2674 35.9918 14.8717 36.3807 15.5403 36.6243C16.0827 36.833 16.8978 37.081 18.3981 37.1484C20.0209 37.2217 20.5072 37.2369 24.6169 37.2369C28.7268 37.2369 29.2134 37.2217 30.8359 37.1484C32.3363 37.081 33.1514 36.833 33.6934 36.6243C35.036 36.1126 36.0966 35.0641 36.6143 33.7372C36.8248 33.2012 37.0757 32.396 37.1445 30.9129C37.2183 29.3082 37.234 28.8272 37.234 24.7654C37.234 20.7029 37.2183 20.222 37.1445 18.6175C37.0763 17.1344 36.8254 16.3287 36.6143 15.7929Z" fill="#0f8d9b"/>
  </g>
</svg>
