<svg width="18" height="12" viewBox="0 0 18 12" fill="none" xmlns="http://www.w3.org/2000/svg">
  <path fill-rule="evenodd" clip-rule="evenodd" d="M18 0.534653V11.5248C18 11.7624 17.7576 12 17.4545 12H0.545455C0.242424 12 0 11.7624 0 11.5248V0.534653C0 0.237624 0.242424 0 0.545455 0H17.4545C17.7576 0 18 0.237624 18 0.534653ZM1.45 1.75108C1.45 1.86076 1.50725 1.96247 1.601 2.01938L8.33973 6.1099C8.51198 6.20495 8.74164 6.3 8.97129 6.3C9.20095 6.3 9.43061 6.20495 9.60285 6.1099L16.3983 2.01905C16.4924 1.96238 16.55 1.86053 16.55 1.75064C16.55 1.61222 16.4378 1.5 16.2994 1.5H1.70109C1.56241 1.5 1.45 1.61241 1.45 1.75108ZM16.55 3.86304C16.55 3.7055 16.3763 3.60981 16.2431 3.69399L10.177 7.52878C9.83251 7.78058 9.43061 7.88129 8.97129 7.88129C8.56939 7.88129 8.16749 7.78058 7.76559 7.52878L1.75756 3.6962C1.62443 3.61127 1.45 3.70689 1.45 3.86481V10.3C1.45 10.4105 1.53954 10.5 1.65 10.5H16.35C16.4605 10.5 16.55 10.4105 16.55 10.3V3.86304Z" fill="white"/>
</svg>
