<svg width="33" height="33" viewBox="0 0 33 33" fill="none" xmlns="http://www.w3.org/2000/svg">
  <circle cx="16.0286" cy="16.0286" r="16.0286" fill="white"/>
  <path d="M21.1962 10.0206C20.4672 9.18807 20.0654 8.11913 20.0655 7.01257H16.7695V20.2392C16.7446 20.9552 16.4426 21.6335 15.9271 22.131C15.4117 22.6285 14.7232 22.9063 14.0068 22.9059C12.4922 22.9059 11.2335 21.6686 11.2335 20.1326C11.2335 18.2979 13.0042 16.9219 14.8282 17.4872V14.1166C11.1482 13.6259 7.92682 16.4846 7.92682 20.1326C7.92682 23.6846 10.8708 26.2126 13.9962 26.2126C17.3455 26.2126 20.0655 23.4926 20.0655 20.1326V13.4232C21.402 14.3831 23.0067 14.8981 24.6522 14.8952V11.5992C24.6522 11.5992 22.6468 11.6952 21.1962 10.0206Z" fill="#0f8d9b"/>
</svg>
